<?xml version="1.0" standalone="no"?>
<!DOCTYPE svg PUBLIC "-//W3C//DTD SVG 20010904//EN"
 "http://www.w3.org/TR/2001/REC-SVG-20010904/DTD/svg10.dtd">
<svg version="1.0" xmlns="http://www.w3.org/2000/svg"
 width="150.000000pt" height="180.000000pt" viewBox="0 0 150.000000 180.000000"
 preserveAspectRatio="xMidYMid meet">

<g transform="translate(0.000000,180.000000) scale(0.100000,-0.100000)"
fill="currentColor" stroke="none">
<path d="M870 1690 c-47 -10 -164 -40 -260 -68 -251 -72 -341 -84 -437 -56
-20 5 -23 3 -23 -20 0 -59 61 -128 133 -152 39 -13 71 -15 138 -11 l89 6 11
-41 c27 -102 39 -380 17 -394 -7 -4 -67 -16 -135 -25 -67 -10 -131 -23 -141
-28 -23 -12 -32 -39 -21 -67 6 -18 19 -22 86 -28 99 -8 146 -21 180 -50 l26
-23 -13 -154 c-21 -247 -2 -370 70 -441 30 -30 45 -38 74 -38 53 0 75 15 98
68 16 34 21 68 21 127 0 100 -21 186 -74 294 l-41 83 28 111 29 112 40 6 c22
3 82 9 133 13 l92 6 20 -33 c11 -17 20 -41 20 -52 1 -11 7 -33 15 -50 14 -29
15 -27 11 39 -7 119 -44 144 -215 145 l-104 1 6 38 c27 171 15 285 -35 327
-16 13 -49 33 -73 44 -25 11 -45 24 -45 28 0 4 39 18 88 31 48 13 110 29 137
37 77 21 379 58 418 51 19 -3 56 -18 83 -31 58 -29 54 -29 54 -11 0 22 -109
135 -158 163 -59 35 -155 63 -210 62 -26 0 -85 -9 -132 -19z m-330 -866 c0
-40 -3 -46 -17 -41 -32 10 -148 52 -152 54 -16 10 68 29 137 32 32 1 32 0 32
-45z m163 -281 c40 -106 50 -151 49 -244 0 -101 -21 -158 -64 -173 -37 -13
-63 11 -78 75 -14 59 -7 159 21 299 10 52 19 98 19 103 0 4 6 7 13 7 8 0 26
-30 40 -67z"/>
</g>
</svg>
