<?xml version="1.0" standalone="no"?>
<!DOCTYPE svg PUBLIC "-//W3C//DTD SVG 20010904//EN"
 "http://www.w3.org/TR/2001/REC-SVG-20010904/DTD/svg10.dtd">
<svg version="1.0" xmlns="http://www.w3.org/2000/svg"
 width="280.000000pt" height="100.000000pt" viewBox="0 0 280.000000 100.000000"
 preserveAspectRatio="xMidYMid meet">

<g transform="translate(0.000000,100.000000) scale(0.100000,-0.100000)"
fill="currentColor" stroke="none">
<path d="M895 876 c-27 -12 -56 -30 -64 -39 -7 -10 -25 -17 -40 -17 -19 0 -22
-3 -12 -9 11 -7 7 -18 -21 -53 -20 -23 -59 -84 -87 -134 l-52 -91 -75 -6 c-88
-6 -132 -28 -156 -77 -23 -45 -14 -51 21 -13 15 17 41 37 57 45 37 18 133 42
141 34 9 -8 -92 -185 -142 -248 -78 -98 -173 -146 -268 -135 -56 7 -60 1 -12
-19 53 -22 141 -18 201 10 91 42 155 122 234 290 43 93 62 116 91 116 5 0 9
-7 9 -15 0 -11 8 -9 35 8 19 12 34 28 35 35 0 15 -9 15 -40 -3 -14 -8 -35 -14
-48 -15 -20 0 -22 4 -16 23 12 40 71 151 104 196 l32 43 56 -6 c38 -4 50 -3
37 3 -11 5 -30 10 -42 10 -60 2 1 48 96 73 l66 17 -45 0 c-27 1 -65 -8 -95
-23z"/>
<path d="M366 840 c-53 -14 -90 -38 -110 -70 -20 -35 -21 -84 -1 -100 12 -10
15 -7 21 17 27 106 142 150 369 140 87 -4 110 -3 85 4 -50 14 -318 20 -364 9z"/>
<path d="M988 813 c7 -3 16 -2 19 1 4 3 -2 6 -13 5 -11 0 -14 -3 -6 -6z"/>
<path d="M1600 697 c-34 -70 -36 -72 -77 -78 -49 -6 -61 -15 -45 -31 9 -9 15
-9 24 0 14 14 38 16 38 4 0 -5 -28 -62 -62 -128 -34 -65 -63 -128 -64 -139 -7
-59 -5 -114 5 -133 12 -22 49 -47 58 -39 2 3 -5 8 -16 12 -68 21 -13 214 112
390 37 52 48 61 82 66 30 5 33 7 13 8 -31 1 -37 21 -13 41 18 15 19 59 1 83
-7 9 -15 17 -17 16 -2 0 -20 -33 -39 -72z"/>
<path d="M1736 655 c-4 -14 -11 -25 -16 -25 -6 0 -10 -9 -10 -20 0 -25 7 -25
48 0 36 22 36 23 22 51 -15 27 -37 24 -44 -6z"/>
<path d="M2452 557 c-26 -28 -29 -65 -4 -74 9 -4 20 -11 24 -17 4 -6 10 -7 14
-3 4 4 -1 13 -11 21 -18 13 -18 15 -2 40 20 30 37 34 37 9 0 -15 2 -16 10 -3
6 10 4 20 -7 32 -21 24 -35 23 -61 -5z"/>
<path d="M1980 505 c0 -49 -44 -128 -101 -184 -100 -98 -114 -86 -53 43 32 67
35 80 25 102 -16 35 -30 27 -52 -30 -10 -27 -26 -57 -35 -67 -9 -11 -15 -22
-11 -25 3 -3 1 -19 -5 -35 -17 -50 32 -88 73 -56 138 105 211 215 174 263 -14
18 -14 17 -15 -11z"/>
<path d="M887 469 c-53 -35 -100 -90 -123 -145 -15 -35 -14 -39 4 -63 30 -41
48 -37 105 21 44 44 29 35 -31 -19 -15 -15 -38 -17 -46 -5 -3 5 4 27 15 49 54
110 214 203 232 135 4 -14 5 -14 6 -1 0 8 -8 25 -19 37 -31 33 -86 29 -143 -9z"/>
<path d="M1227 456 c-61 -59 -91 -119 -83 -165 3 -20 13 -42 23 -48 29 -22 85
-15 138 17 61 36 54 39 -11 5 -75 -40 -104 -30 -104 35 0 65 89 170 144 170
19 0 21 -21 4 -38 -6 -6 -9 -14 -6 -18 11 -11 30 38 24 62 -5 20 -13 24 -45
24 -33 0 -47 -7 -84 -44z"/>
<path d="M1605 438 c-67 -111 -78 -138 -67 -164 16 -33 45 -38 91 -15 22 12
42 25 45 30 4 5 -11 0 -32 -12 -36 -19 -72 -19 -72 2 0 5 27 50 60 101 49 73
59 95 49 106 -20 25 -35 15 -74 -48z"/>
<path d="M2130 480 c-43 -22 -126 -109 -140 -145 -17 -44 -12 -73 15 -91 23
-15 27 -15 48 -1 34 24 81 67 72 67 -4 0 -25 -16 -47 -36 -27 -24 -43 -33 -50
-26 -27 27 38 127 116 180 64 43 95 50 112 27 8 -10 16 -16 19 -13 3 3 -6 17
-19 31 -30 32 -74 35 -126 7z"/>
<path d="M2481 388 c-18 -39 -31 -81 -29 -92 3 -23 53 -55 65 -42 4 5 2 11 -4
13 -22 8 -15 36 22 90 19 29 35 57 35 62 0 6 -13 17 -28 25 l-29 15 -32 -71z"/>
<path d="M972 382 c-30 -25 -31 -30 -23 -60 6 -19 15 -40 22 -48 18 -22 71
-17 104 11 l30 25 -36 -20 c-62 -35 -89 -6 -47 51 17 23 20 34 12 46 -16 26
-26 25 -62 -5z"/>
<path d="M2194 376 c-22 -19 -33 -36 -26 -36 6 0 12 -12 12 -28 0 -15 5 -33
12 -40 18 -18 70 -14 98 9 l25 20 -33 -16 c-26 -13 -37 -14 -48 -4 -19 16 -18
23 12 59 l27 31 -20 21 -21 20 -38 -36z"/>
<path d="M2634 338 l-19 -23 23 19 c12 11 22 21 22 23 0 8 -8 2 -26 -19z"/>
<path d="M2334 318 l-19 -23 23 19 c21 18 27 26 19 26 -2 0 -12 -10 -23 -22z"/>
<path d="M2579 293 c-13 -16 -12 -17 4 -4 9 7 17 15 17 17 0 8 -8 3 -21 -13z"/>
<path d="M2540 270 c-9 -6 -10 -10 -3 -10 6 0 15 5 18 10 8 12 4 12 -15 0z"/>
</g>
</svg>
