<?xml version="1.0" standalone="no"?>
<!DOCTYPE svg PUBLIC "-//W3C//DTD SVG 20010904//EN" "http://www.w3.org/TR/2001/REC-SVG-20010904/DTD/svg10.dtd">
<svg
  version="1.0"
  xmlns="http://www.w3.org/2000/svg"
  width="640.000000pt"
  height="390.000000pt"
  viewBox="0 0 640.000000 390.000000"
  preserveAspectRatio="xMidYMid meet"
>
  <g
    transform="translate(0.000000,390.000000) scale(0.100000,-0.100000)"
    fill="currentColor"
    stroke="none"
  >
    <path
      d="M3376 3768 c-27 -5 -142 -35 -256 -68 -283 -80 -375 -91 -462 -55
  -15 6 -18 1 -18 -32 0 -114 145 -189 311 -160 l46 8 13 -43 c6 -24 14 -122 17
  -219 l5 -176 -83 -12 c-192 -27 -229 -41 -229 -86 0 -34 16 -41 119 -54 51 -7
  108 -18 126 -26 52 -21 57 -40 45 -162 -33 -353 15 -513 157 -513 34 0 46 6
  66 30 76 89 56 304 -44 489 l-29 54 26 101 c14 56 31 107 38 114 8 9 55 15
  139 19 l126 6 12 -29 c6 -16 16 -51 23 -78 14 -60 32 -57 28 4 -10 137 -41
  159 -214 160 l-108 0 8 48 c4 26 7 92 6 147 -1 138 -13 165 -98 207 -36 18
  -66 35 -66 38 0 3 46 16 103 29 56 13 107 27 113 32 6 5 51 13 100 19 49 5
  134 16 188 25 112 16 164 10 232 -30 71 -41 68 -11 -7 74 -112 127 -256 173
  -433 139z m-348 -870 c-2 -24 -7 -42 -13 -40 -5 1 -41 13 -80 27 -38 13 -72
  25 -75 26 -9 2 115 26 143 28 27 1 28 -1 25 -41z m178 -334 c51 -148 47 -290
  -10 -352 -52 -58 -102 14 -99 143 1 72 37 297 50 318 10 17 25 -11 59 -109z"
    />

    <path
      d="M2762 1830 c-13 -6 -43 -24 -68 -41 -43 -29 -48 -30 -92 -20 -120 26
  -231 34 -319 22 -104 -15 -143 -30 -171 -66 -32 -40 -29 -125 4 -125 9 0 14
  11 14 27 0 42 76 108 142 123 57 13 341 11 354 -3 4 -4 -2 -20 -14 -35 -21
  -26 -87 -134 -121 -197 -22 -41 -29 -45 -81 -45 -77 -1 -123 -16 -157 -54 -18
  -20 -33 -45 -33 -56 0 -27 7 -25 37 10 14 17 42 39 62 49 39 20 131 38 131 26
  0 -4 -23 -50 -52 -102 -115 -209 -250 -298 -391 -260 -38 10 -27 -6 17 -27 21
  -10 60 -16 103 -16 141 0 231 78 334 291 50 101 68 128 86 132 27 5 29 -2 8
  -29 -25 -33 -16 -41 10 -8 13 17 38 37 55 44 30 12 39 33 19 45 -5 4 -18 0
  -28 -9 -18 -16 -81 -33 -81 -22 0 12 99 201 119 226 18 22 26 24 105 25 56 0
  90 5 98 13 11 11 -1 12 -64 6 -66 -6 -78 -4 -78 8 0 19 87 58 129 58 16 0 33
  5 36 10 8 13 -81 12 -113 0z"
    />

    <path
      d="M3456 1654 c-34 -76 -50 -91 -96 -96 -24 -2 -36 -9 -38 -21 -3 -16 1
  -17 32 -11 l37 6 -65 -123 c-52 -101 -65 -136 -71 -190 -6 -61 -5 -67 20 -97
  15 -18 34 -32 42 -32 11 0 8 8 -12 26 -25 23 -27 30 -22 77 4 28 22 84 41 124
  35 74 129 222 150 235 6 4 28 8 49 8 26 0 37 -4 37 -15 0 -20 15 -19 51 2 34
  20 37 43 10 67 -19 17 -20 17 -36 -13 -13 -25 -22 -31 -49 -31 -45 0 -49 8
  -26 45 21 35 17 69 -11 92 -11 9 -20 -2 -43 -53z"
    />

    <path
      d="M4295 1495 c-14 -13 -25 -31 -25 -39 0 -16 26 -46 41 -46 27 0 -81
  -116 -153 -165 -68 -46 -104 -21 -56 40 16 21 19 31 11 44 -19 30 -39 22 -128
  -59 -110 -99 -140 -106 -96 -22 27 50 58 84 110 121 48 34 111 43 111 16 0 -8
  5 -15 10 -15 18 0 11 26 -13 48 -67 63 -212 -17 -270 -147 -19 -43 -19 -44 0
  -70 33 -43 56 -39 121 23 60 57 72 60 72 20 0 -14 10 -30 25 -40 24 -16 28
  -16 68 2 24 11 79 56 130 106 48 48 89 88 92 88 12 0 3 -34 -20 -80 -14 -27
  -25 -60 -25 -73 0 -28 29 -57 57 -57 24 0 97 48 137 89 36 38 28 41 -11 5 -46
  -44 -102 -77 -118 -70 -21 8 -19 15 20 76 19 30 35 62 35 72 0 10 -13 22 -35
  29 -40 15 -41 16 -18 63 13 29 14 38 3 51 -18 22 -47 19 -75 -10z m65 -22 c-1
  -19 -22 -53 -34 -53 -11 0 -6 46 6 58 17 17 28 15 28 -5z"
    />

    <path
      d="M3823 1438 c0 -57 -23 -99 -97 -175 -57 -58 -86 -76 -86 -54 0 5 16
  43 35 85 40 89 42 106 15 131 -19 17 -20 17 -26 -1 -23 -74 -52 -120 -99 -154
  -148 -109 -177 -76 -65 75 22 30 40 61 40 69 0 13 -38 43 -44 34 -1 -2 -18
  -28 -38 -59 -79 -122 -92 -163 -60 -192 33 -30 73 -17 165 55 l38 30 -3 -42
  c-3 -49 14 -67 56 -56 15 4 63 41 106 84 87 86 113 140 92 187 -17 37 -29 30
  -29 -17z"
    />

    <path
      d="M2765 1426 c-77 -36 -165 -143 -165 -201 0 -21 36 -55 58 -55 9 0 44
  24 77 54 58 52 60 53 65 30 7 -32 36 -64 59 -64 10 0 42 16 71 35 29 19 54 35
  56 35 2 0 4 -11 4 -25 0 -14 11 -37 26 -51 21 -22 31 -25 62 -19 43 8 117 53
  153 92 23 26 22 26 -16 -4 -60 -46 -103 -65 -138 -61 -31 3 -32 5 -31 46 1 50
  41 114 93 149 41 28 66 30 56 6 -20 -50 -20 -49 -2 -34 24 19 22 68 -3 81 -45
  24 -124 -30 -180 -124 -13 -21 -44 -51 -69 -67 -75 -48 -111 -33 -68 28 21 29
  23 39 14 54 -7 11 -19 19 -27 19 -8 -1 -53 -37 -100 -80 -86 -81 -110 -94
  -110 -62 0 22 49 99 81 128 64 58 143 82 155 49 4 -8 10 -15 15 -15 31 0 -24
  65 -61 74 -16 3 -44 -3 -75 -18z"
    />

    <path
      d="M320 703 c-19 -10 -41 -30 -48 -45 -18 -39 13 -97 75 -139 93 -62
  113 -87 113 -142 0 -40 -5 -53 -28 -77 -56 -56 -164 -49 -203 13 -20 32 -21
  62 -3 117 7 23 6 24 -9 11 -13 -10 -17 -30 -17 -75 0 -52 4 -66 23 -83 35 -32
  62 -43 107 -43 90 0 150 56 150 141 0 57 -20 85 -100 139 -68 46 -90 74 -90
  112 0 39 24 58 74 58 48 0 76 -22 76 -58 0 -12 5 -22 10 -22 19 0 10 56 -13
  78 -33 31 -75 36 -117 15z"
    />

    <path
      d="M1687 682 c-29 -32 -49 -95 -54 -174 -5 -66 -10 -82 -35 -113 -42
  -50 -58 -35 -58 56 0 38 -4 69 -10 69 -5 0 -22 -25 -37 -56 -29 -60 -85 -117
  -111 -112 -9 2 -23 15 -31 29 -13 23 -12 30 18 90 38 78 60 173 45 196 -16 25
  -30 26 -51 4 -43 -46 -62 -252 -29 -303 38 -58 123 -21 165 72 l16 35 3 -50
  c5 -78 46 -109 78 -60 9 14 20 25 25 25 5 0 9 -47 9 -105 0 -63 4 -105 10
  -105 6 0 10 33 10 79 l0 78 38 6 c52 9 78 30 110 90 l27 52 5 -64 c6 -82 26
  -98 69 -57 24 23 31 25 37 13 24 -40 91 -48 142 -17 l33 20 28 -21 c24 -18 32
  -19 52 -9 13 7 33 24 45 38 l20 25 22 -37 c12 -20 27 -36 33 -36 18 0 78 68
  85 96 9 36 27 24 41 -26 7 -25 20 -51 28 -59 13 -14 17 -14 30 0 8 8 24 39 34
  69 23 66 38 74 46 23 9 -57 32 -103 52 -103 9 0 27 9 39 21 l22 21 21 -21 c29
  -29 43 -26 81 12 23 23 34 28 38 18 6 -18 40 -51 51 -51 6 0 22 11 38 24 l28
  24 22 -24 c28 -31 73 -31 109 -1 21 19 27 32 27 67 0 37 -6 48 -33 73 -25 22
  -38 27 -59 22 -39 -10 -69 -43 -76 -85 -4 -21 -17 -48 -32 -61 l-25 -24 -19
  24 c-26 32 -24 51 15 129 59 118 65 182 17 182 -46 0 -81 -81 -81 -187 0 -73
  -2 -81 -29 -111 -32 -35 -51 -34 -71 2 -15 30 8 79 47 99 16 9 22 17 14 21
  -17 11 -70 -32 -77 -62 -8 -35 -46 -92 -61 -92 -16 0 -29 26 -38 77 -3 22 -13
  49 -21 60 -14 17 -15 17 -32 -6 -9 -13 -24 -45 -33 -70 -22 -64 -40 -59 -60
  18 -9 36 -21 67 -27 69 -6 2 -19 -16 -30 -40 -24 -54 -70 -110 -84 -102 -6 4
  -19 26 -30 50 -19 44 -38 58 -38 29 0 -22 -29 -64 -52 -76 -15 -8 -24 -7 -39
  7 -54 49 19 147 97 128 27 -6 28 -5 12 11 -36 38 -132 -13 -145 -77 -8 -40
  -57 -78 -99 -78 -69 0 -99 76 -49 125 13 14 30 25 38 25 19 0 37 -21 37 -43 0
  -10 5 -17 13 -15 21 8 19 36 -3 58 -17 17 -29 21 -53 16 -43 -9 -66 -33 -78
  -82 -13 -52 -55 -96 -69 -74 -5 8 -10 48 -10 88 0 85 -9 86 -45 7 -14 -29 -39
  -65 -56 -79 -37 -32 -85 -35 -94 -6 -6 20 -2 31 52 121 66 109 79 199 29 199
  -12 0 -30 -8 -39 -18z m53 -17 c0 -49 -67 -195 -89 -195 -7 0 1 80 14 136 11
  49 75 99 75 59z m1163 -27 c-2 -35 -56 -158 -69 -158 -11 0 -2 118 11 141 30
  52 61 61 58 17z m-1503 -10 c0 -30 -10 -65 -40 -143 -10 -26 -13 -28 -21 -13
  -11 19 4 121 23 164 16 35 38 30 38 -8z m1663 -146 c22 -19 22 -79 0 -104 -9
  -10 -28 -18 -43 -18 -62 0 -86 84 -37 126 28 24 48 23 80 -4z"
    />

    <path
      d="M3987 670 c-25 -30 -44 -96 -53 -188 -6 -60 -4 -293 2 -304 14 -23
  24 11 24 83 l0 79 28 0 c15 0 42 9 60 20 l33 20 28 -21 c24 -18 32 -19 52 -9
  13 7 34 24 46 39 l21 26 10 -25 c21 -53 55 -59 92 -15 11 13 15 12 38 -10 33
  -34 87 -34 136 0 l38 26 20 -26 c37 -48 90 -31 142 46 l33 50 6 -42 c10 -79
  65 -92 88 -21 18 57 21 58 38 7 23 -68 43 -78 81 -40 16 17 40 50 53 75 33 64
  57 61 79 -9 18 -54 42 -91 61 -91 6 0 21 9 33 21 l22 21 30 -22 c25 -19 33
  -20 53 -10 13 7 34 24 46 38 l22 26 10 -26 c16 -44 45 -52 78 -24 l28 24 30
  -25 c24 -21 36 -24 72 -20 51 5 83 31 108 88 10 21 22 39 26 39 4 0 9 -25 11
  -56 4 -75 25 -91 66 -51 l28 27 24 -25 c32 -34 74 -33 111 4 33 34 37 69 12
  111 -20 35 -51 50 -86 43 -33 -6 -67 -47 -67 -79 0 -32 -42 -79 -63 -71 -14 5
  -17 21 -17 82 0 42 -4 74 -9 71 -4 -3 -21 -31 -37 -61 -39 -78 -68 -105 -114
  -105 -84 0 -111 111 -34 140 32 12 51 4 63 -28 l9 -27 1 33 c1 26 -4 34 -25
  42 -49 19 -114 -31 -114 -89 0 -9 -13 -30 -28 -45 -33 -31 -40 -26 -68 39
  l-16 38 -21 -38 c-31 -54 -57 -69 -85 -49 -61 42 10 143 90 128 31 -6 32 -5
  17 10 -25 27 -82 12 -119 -30 -16 -19 -30 -43 -30 -53 0 -23 -37 -71 -55 -71
  -13 0 -34 39 -55 103 -9 29 -17 37 -35 37 -14 0 -25 7 -28 20 -6 24 -29 26
  -47 5 -10 -12 -9 -16 4 -21 23 -9 20 -27 -14 -83 -51 -82 -75 -74 -94 32 -6
  34 -16 61 -21 60 -5 -1 -19 -32 -30 -70 -14 -46 -26 -69 -38 -71 -20 -4 -23 4
  -32 81 -4 31 -10 57 -15 57 -5 0 -19 -23 -31 -50 -23 -53 -69 -100 -98 -100
  -37 0 -51 32 -51 118 l0 82 37 0 c40 0 35 16 -7 22 -23 3 -25 8 -28 61 -4 76
  -22 74 -22 -3 l0 -60 -31 0 c-17 0 -28 -4 -24 -10 3 -5 17 -10 31 -10 23 0 24
  -3 24 -69 0 -66 -1 -70 -35 -100 -44 -38 -94 -42 -125 -9 -37 40 -19 112 30
  118 38 6 50 -1 50 -25 0 -14 5 -25 10 -25 12 0 13 40 1 60 -6 8 -24 14 -48 13
  -43 -1 -83 -38 -83 -78 0 -13 -12 -37 -26 -55 -31 -36 -44 -30 -73 34 l-18 41
  -16 -37 c-8 -20 -27 -44 -41 -54 -25 -16 -28 -16 -46 1 -27 24 -25 68 4 102
  20 22 32 28 65 27 27 -1 40 3 38 10 -6 18 -42 18 -81 2 -29 -12 -42 -26 -61
  -69 -13 -29 -35 -61 -49 -70 -35 -23 -73 -22 -81 3 -6 20 -2 32 52 122 40 68
  66 146 58 175 -8 34 -47 30 -78 -7z m63 -5 c0 -21 -45 -139 -65 -169 -10 -14
  -21 -26 -26 -26 -18 0 12 147 38 187 17 26 53 31 53 8z m1861 -165 c11 0 39
  -54 39 -76 0 -26 -40 -64 -67 -64 -61 0 -86 90 -36 130 15 11 33 18 41 15 7
  -3 18 -5 23 -5z"
    />

    <path
      d="M3368 680 c-25 -15 -46 -95 -51 -195 -4 -78 -2 -94 15 -117 24 -35
  73 -38 111 -7 l26 20 29 -21 c28 -21 31 -21 60 -6 17 9 36 25 42 37 11 19 12
  19 33 -12 12 -18 27 -34 33 -36 16 -5 74 46 74 65 0 12 -8 9 -29 -12 -37 -35
  -56 -29 -77 24 -16 40 -34 53 -34 25 0 -22 -29 -64 -52 -76 -15 -8 -24 -7 -39
  7 -26 23 -24 67 5 101 21 24 31 28 73 26 44 -1 46 0 29 13 -44 32 -106 1 -140
  -70 -38 -81 -79 -108 -118 -76 -25 20 -28 8 26 137 33 77 43 147 26 168 -14
  17 -19 18 -42 5z m31 -52 c-1 -45 -41 -160 -58 -166 -16 -5 -10 59 15 146 17
  60 44 73 43 20z"
    />

    <path
      d="M5908 609 c-27 -20 -37 -39 -20 -39 4 0 23 14 42 30 40 33 21 41 -22
  9z"
    />

    <path
      d="M555 600 c-8 -13 4 -32 16 -25 12 8 12 35 0 35 -6 0 -13 -4 -16 -10z"
    />

    <path
      d="M1517 595 c-8 -18 11 -31 25 -17 11 11 3 32 -12 32 -4 0 -10 -7 -13
  -15z"
    />

    <path
      d="M1820 590 c0 -13 5 -20 13 -17 6 2 12 10 12 17 0 7 -6 15 -12 18 -8
  2 -13 -5 -13 -18z"
    />

    <path
      d="M5702 596 c1 -10 8 -17 13 -17 15 1 12 24 -3 29 -9 3 -13 -2 -10 -12z"
    />

    <path
      d="M526 463 c-15 -31 -24 -58 -22 -61 5 -5 45 56 48 73 1 6 4 -19 7 -54
  8 -82 27 -98 69 -57 17 15 38 43 48 62 18 33 34 44 34 23 0 -25 44 -109 57
  -109 8 0 29 33 49 76 19 41 38 73 42 70 5 -3 17 -32 27 -66 23 -76 43 -77 65
  -1 18 62 40 80 40 32 0 -59 33 -111 72 -111 11 0 33 9 49 21 l29 20 0 -58 c0
  -64 8 -103 20 -103 5 0 6 46 3 103 l-4 102 20 -25 c11 -14 21 -27 21 -30 0 -3
  9 -11 21 -18 28 -18 65 6 74 47 8 36 -16 95 -43 110 -26 14 -89 14 -97 1 -4
  -6 11 -10 38 -10 50 0 73 -19 83 -68 7 -36 -8 -62 -36 -62 -16 0 -39 26 -65
  74 -14 26 -29 22 -33 -8 -4 -33 -49 -76 -79 -76 -25 0 -41 27 -62 108 -7 23
  -18 42 -25 42 -17 0 -46 -60 -46 -95 0 -42 -22 -25 -35 27 -15 58 -33 82 -50
  68 -7 -6 -26 -40 -41 -76 -15 -35 -32 -63 -38 -61 -6 2 -21 32 -33 67 -12 36
  -25 66 -30 67 -4 2 -17 -18 -28 -43 -23 -53 -71 -108 -85 -99 -5 3 -10 40 -10
  81 0 93 -17 99 -54 17z"
    />

    <path
      d="M6000 464 c-24 -56 -25 -60 -5 -44 8 7 15 19 15 27 0 30 24 5 37 -39
      14 -51 38 -77 54 -61 5 5 21 36 34 69 13 32 28 60 32 61 5 2 14 -23 21 -55 13
      -61 26 -82 52 -82 18 0 54 35 63 63 10 28 -10 19 -30 -13 -31 -53 -50 -37 -73
      58 -20 86 -43 80 -80 -19 -13 -33 -27 -58 -33 -56 -10 3 -29 52 -41 110 -9 39
      -22 34 -46 -19z"
    />
  </g>
</svg>